<svg width="250" height="250" viewBox="0 0 250 250" fill="none" xmlns="http://www.w3.org/2000/svg">
<path d="M94.9234 156.976C101.785 163.838 106.587 171.181 109.329 179.006C112.072 186.831 112.528 194.525 110.699 202.089C108.869 209.588 104.963 216.33 98.9795 222.313C92.9962 228.296 86.3192 232.235 78.9486 234.129C71.5458 235.99 63.9805 235.663 56.2525 233.146C48.5567 230.597 41.3263 226.069 34.5612 219.561L30.5986 215.599C23.7044 208.704 18.8863 201.377 16.1442 193.617C13.4021 185.792 12.9458 178.098 14.7751 170.534C16.6367 162.938 20.5752 156.132 26.5907 150.117C32.5418 144.166 39.2671 140.276 46.7665 138.446C54.2659 136.617 61.9279 137.041 69.7525 139.719C77.5771 142.332 84.8882 147.005 91.6857 153.738L94.9234 156.976ZM74.7495 171.254C67.7586 164.264 61.285 160.138 55.3285 158.878C49.372 157.554 44.2224 159.063 39.8797 163.406C31.3873 171.898 33.2785 182.765 45.5535 196.005L50.6758 201.224C57.57 208.118 64.0115 212.275 70.0003 213.696C75.989 215.117 81.2352 213.576 85.7388 209.072C90.0172 204.794 91.4942 199.676 90.17 193.72C88.8457 187.763 84.7848 181.354 77.9872 174.492L74.7495 171.254Z" fill="white" fill-opacity="0.06"/>
<path d="M151.143 108.585L124.508 135.22L141.276 151.988L172.737 120.528L185.784 133.575L137.387 181.972L67.0277 111.613L115.521 63.1192L128.617 76.215L97.06 107.772L111.895 122.607L138.531 95.9721L151.143 108.585Z" fill="white" fill-opacity="0.06"/>
<path d="M218.45 33.4497C225.312 40.3117 230.114 47.655 232.856 55.4797C235.598 63.3044 236.054 70.9986 234.225 78.5624C232.395 86.0618 228.489 92.8032 222.506 98.7865C216.523 104.77 209.846 108.708 202.475 110.602C195.072 112.464 187.507 112.136 179.779 109.62C172.083 107.071 164.853 102.543 158.087 96.0348L154.125 92.0723C147.231 85.1781 142.413 77.8508 139.671 70.0905C136.928 62.2658 136.472 54.5716 138.301 47.0078C140.163 39.4119 144.102 32.6062 150.117 26.5907C156.068 20.6395 162.793 16.7493 170.293 14.9199C177.792 13.0904 185.454 13.5146 193.279 16.1923C201.103 18.8056 208.415 23.4789 215.212 30.212L218.45 33.4497ZM198.276 47.7281C191.285 40.7373 184.811 36.6119 178.855 35.352C172.898 34.0278 167.749 35.537 163.406 39.8797C154.914 48.3721 156.805 59.2384 169.08 72.4784L174.202 77.6972C181.096 84.5914 187.538 88.749 193.527 90.1698C199.515 91.5907 204.762 90.0493 209.265 85.5458C213.544 81.2674 215.021 76.15 213.696 70.1934C212.372 64.2369 208.311 57.8277 201.514 50.9658L198.276 47.7281Z" fill="white" fill-opacity="0.06"/>
</svg>
